<?xml version="1.0" encoding="UTF-8" standalone="no"?>
<!DOCTYPE svg PUBLIC "-//W3C//DTD SVG 1.1//EN" "http://www.w3.org/Graphics/SVG/1.1/DTD/svg11.dtd">
<svg version="1.1" xmlns="http://www.w3.org/2000/svg" xmlns:xlink="http://www.w3.org/1999/xlink" preserveAspectRatio="xMidYMid meet" viewBox="0 0 640 640" width="640" height="640"><defs><path d="M423.62 250.8C423.62 296.99 357.38 334.49 275.8 334.49C194.21 334.49 127.97 296.99 127.97 250.8C127.97 204.6 194.21 167.1 275.8 167.1C357.38 167.1 423.62 204.6 423.62 250.8Z" id="e1EBCpNLlb"></path><path d="M447.54 196.09L426.52 436.67L275.8 342.46C283.04 298.99 255.51 281.84 193.19 291.01C99.71 304.78 248.26 297.54 359.13 329.42C470 361.3 347.54 329.42 232.32 277.97C117.1 226.52 206.96 263.48 259.86 268.55C312.75 273.62 338.84 291.01 361.3 287.39C383.77 283.77 413.48 365.65 293.19 221.45C213 125.31 157.92 126.76 127.97 225.8" id="abrTP6hnx"></path></defs><g><g><g><use xlink:href="#e1EBCpNLlb" opacity="1" fill="#cdefbe" fill-opacity="1"></use></g><g><g><use xlink:href="#abrTP6hnx" opacity="1" fill-opacity="0" stroke="#000000" stroke-width="1" stroke-opacity="1"></use></g></g></g></g></svg>